<svg xmlns="http://www.w3.org/2000/svg" xml:space="preserve" width="512" height="512" style="shape-rendering:geometricprecision;text-rendering:geometricprecision;image-rendering:optimizequality;fill-rule:evenodd;clip-rule:evenodd" viewBox="0 0 434.34 434.34"><defs><style>.fil1{fill:#d41443}</style></defs><g id="Слой_x0020_1"><ellipse cx="218.45" cy="221.52" rx="209.71" ry="212.83" style="fill:#fff"/><path class="fil1" d="M161.78 7.62C60.67 38.06 0 117.2 0 217.21c0 81.76 42.2 153.07 111.66 188.73 36.05 18.26 41.33 5.21 7.91-20.01-23.73-19.13-28.13-27.83-28.13-60.01 0-22.61-5.28-40.87-13.19-47.83-15.82-13.04-17.58-46.96-1.76-59.14 6.16-5.21 12.31-22.61 13.19-38.26 4.4-57.4 66.82-111.32 129.25-111.32 62.43 0 124.85 53.92 129.25 111.32.88 15.65 7.03 33.05 13.19 38.26 15.82 12.18 14.07 46.1-1.76 59.14-7.91 6.96-13.19 25.22-13.19 47.83 0 32.18-4.4 40.88-28.14 60.01-36.92 28.7-26.37 39.14 14.95 13.92 58.03-35.66 101.11-113.06 101.11-181.77 0-137.41-144.19-248.72-272.56-210.46z"/><path class="fil1" d="M173.21 108.51c-15.83 6.95-29.01 15.65-29.01 20.87 0 9.57 47.47 26.96 74.73 26.96 27.26 0 74.74-17.39 74.74-26.96 0-10.44-54.52-33.92-76.5-33.92-8.79.87-29.01 6.09-43.96 13.05zM123.09 162.42c-2.64 3.48-5.27 14.79-5.27 26.1 0 20 .88 20 101.11 20s101.11 0 101.11-20c0-29.57-7.91-33.05-36.05-19.14-31.65 16.53-98.47 16.53-130.12 0-14.07-6.96-27.26-9.56-30.78-6.96zM97.59 239.83c-14.06 14.78 9.67 20.87 78.26 20.87h73.85v30.44c0 16.52 4.4 30.44 8.79 30.44 5.28 0 8.8-13.05 8.8-29.57 0-28.7 1.76-30.44 35.17-33.05 19.34-1.74 35.17-6.96 35.17-11.31 0-9.56-230.37-17.39-240.04-7.82z"/><path class="fil1" d="M117.82 316.36c0 47.83 16.7 57.4 101.11 57.4s101.11-9.57 101.11-57.4c0-20.87-4.39-29.57-13.19-29.57-7.91 0-13.19 7.83-13.19 20.87 0 48.7-66.82 53.05-76.49 5.22-4.4-25.22-7.03-26.09-51.88-26.09h-47.47v29.57zM172.33 414.63c5.28 27.83 94.96 25.23 94.96-1.74 0-9.56-11.43-13.04-49.24-13.04-41.32 0-48.36 2.61-45.72 14.78z"/></g></svg>